<svg width="32" height="32" viewBox="0 0 32 32" fill="none" xmlns="http://www.w3.org/2000/svg">
<path d="M22.0263 21.9577C21.521 22.0156 21.3042 22.4186 21.0516 22.7555C20.0242 24.1256 18.9739 24.4925 17.3209 24.0359C16.0486 23.684 15.6981 23.8497 15.0826 25.0447C14.8643 25.5088 14.6046 25.9523 14.3066 26.3697C14.0908 26.6464 13.8155 26.8709 13.5012 27.0265C13.1869 27.1822 12.8417 27.265 12.491 27.2691C12.1402 27.2734 11.793 27.1983 11.4752 27.0499C11.1573 26.9017 10.877 26.6837 10.6549 26.4123C10.5871 26.3281 10.5146 26.248 10.4376 26.1719C10.0297 25.7913 9.61083 25.87 9.46175 26.4159C9.33541 26.8786 9.33089 27.3747 9.27531 27.8564C9.19177 28.5796 9.12202 29.305 9.0227 30.0261C8.98404 30.266 8.90945 30.4989 8.80157 30.7166C8.25374 31.872 6.90459 32.0043 6.2254 30.9173C5.8925 30.3846 5.74393 29.728 5.56059 29.1133C5.41467 28.6237 5.38272 28.1003 5.22748 27.6155C5.03639 27.0193 4.75268 26.9298 4.17627 27.1877C3.84121 27.3605 3.4952 27.5114 3.1405 27.6389C1.88838 28.0104 0.726102 27.3388 0.374107 26.0836C0.208927 25.4946 0.125717 24.9858 0.669736 24.4791C1.02773 24.1453 1.20665 23.6147 1.44952 23.1631C3.99197 18.4256 6.79266 13.8427 9.78375 9.37703C11.3916 6.97671 13.0281 4.59423 14.6609 2.21018C14.9657 1.76502 15.3293 1.36042 15.6388 0.918092C16.0252 0.365387 16.5435 0.189466 17.1892 0.279952C18.5035 0.464241 19.6702 1.02818 20.756 1.74291C25.1036 4.6045 27.9436 8.52871 29.0413 13.6539C29.272 14.7312 29.6028 15.7922 29.4416 16.9303C29.3875 17.3121 29.5744 17.7227 29.6086 18.1238C29.6873 18.7725 29.561 19.4296 29.2477 20.003C28.9378 20.5399 28.524 20.8341 27.8553 20.743C27.0686 20.6359 26.9078 20.769 26.7767 21.5545C26.6663 22.2197 26.6078 22.8935 26.5082 23.5601C26.4627 23.8533 26.3939 24.1427 26.303 24.4249C26.0174 25.326 25.5232 25.7225 24.6816 25.7492C23.7515 25.779 23.0257 25.3228 22.7393 24.4644C22.613 24.0854 22.603 23.6698 22.5132 23.2771C22.4077 22.8201 22.4844 22.2895 22.0263 21.9577ZM19.8297 12.8485C19.8183 12.824 19.8141 12.7878 19.7948 12.7768C19.6835 12.7044 19.566 12.642 19.4437 12.5901C18.3889 12.2096 17.7744 11.4467 17.5031 10.3793C17.4103 10.0144 17.3261 9.64643 17.2144 9.28733C17.0938 8.81921 16.9338 8.36205 16.7366 7.92071C16.269 7.0026 15.2837 6.63087 14.0128 6.78861C13.1016 6.90169 12.9123 7.64027 12.5126 8.31234C13.8334 8.48353 14.4141 9.2848 14.5555 10.396C14.6586 11.1222 14.5869 11.8625 14.3467 12.5555C14.1064 13.2485 13.7044 13.8742 13.174 14.3807C11.9517 15.6013 10.2663 15.7597 8.78073 14.8779C8.62456 14.7852 8.47553 14.6802 8.25194 14.5346L2.26278 24.1911L2.36734 24.3434L6.50993 23.0148C6.52762 22.8305 6.53948 22.7514 6.54155 22.6719C6.5447 22.5641 6.53096 22.455 6.54155 22.348C6.71967 20.4929 7.42157 18.9761 9.19449 18.1041C11.0017 17.2153 13.7989 17.4287 14.9111 19.79C14.9666 19.8888 15.0285 19.9837 15.0966 20.0742C15.4213 19.9637 15.7268 19.8656 16.0283 19.7562C16.3469 19.6407 16.6614 19.5146 16.9694 19.3961C16.1858 16.8908 17.3468 14.2929 19.8297 12.8485ZM7.25972 30.4597L7.48642 30.4075C7.87078 29.8231 7.86794 29.1426 7.93365 28.4793C8.00785 27.7286 8.01543 26.9647 8.1645 26.2294C8.38747 25.1289 9.31727 24.5421 10.3233 24.8065C10.7578 24.9206 11.1961 25.0394 11.5117 25.4306C11.8005 25.7882 12.2269 26.0025 12.6572 25.7523C12.9489 25.5658 13.1793 25.2973 13.3194 24.9805C13.7126 24.1167 14.359 23.3928 15.1729 22.9047C15.4609 22.7038 15.7903 22.5707 16.137 22.515C16.4834 22.4592 16.8383 22.4824 17.1746 22.5827C17.4338 22.6572 17.6876 22.7591 17.9514 22.8071C18.6373 22.9319 19.2366 22.8119 19.649 22.1712C19.8169 21.9261 20.0026 21.6938 20.2049 21.4763C20.7882 20.8139 21.4771 20.3283 22.402 20.6007C23.289 20.8619 23.6083 21.6147 23.7556 22.4535C23.8303 22.8785 23.884 23.3074 23.9619 23.7319C24.0171 24.0333 24.1127 24.3366 24.4891 24.3486C24.8654 24.3609 24.8555 24.0161 24.9397 23.7758C24.9797 23.6468 25.0056 23.5138 25.0167 23.3792C25.0956 22.7098 25.1676 22.0396 25.2458 21.3704C25.4303 19.796 26.469 19.1998 27.6636 19.3807C27.7078 19.3873 27.7598 19.3431 27.9006 19.2835C27.9573 18.851 28.0209 18.3702 28.0995 17.7712C26.8222 18.1224 25.6928 18.387 24.5937 18.7432C19.3593 20.4373 14.1416 22.1834 8.89964 23.8535C6.56407 24.5977 4.18555 25.2074 1.82597 25.8765C1.6641 25.9224 1.4985 25.9554 1.30711 26.0009C1.8606 26.7915 2.15524 26.8937 2.89081 26.5725C3.13684 26.465 3.35969 26.3057 3.60352 26.1921C3.83851 26.0641 4.08963 25.9679 4.35015 25.9065C5.26701 25.7569 6.02149 26.2078 6.34207 27.1716C6.57042 27.8583 6.65713 28.5907 6.8411 29.2937C6.94518 29.6912 7.1182 30.0714 7.26032 30.4597H7.25972ZM25.221 16.7543C25.2027 16.5135 25.1709 16.274 25.1262 16.0368C24.215 12.5033 22.6587 9.29996 20.1692 6.60246C18.9023 5.22985 17.2993 4.37237 15.5122 3.78918L14.0168 5.94427C14.3407 5.94427 14.5027 5.95659 14.6623 5.94237C16.3216 5.79423 17.4989 6.87169 17.9728 8.35137C18.1206 8.81231 18.2455 9.28103 18.3699 9.74892C18.6077 10.6426 19.0793 11.3064 20.0317 11.5477C20.2902 11.6259 20.5383 11.7354 20.7704 11.8738C21.7684 12.4136 22.3799 13.2344 22.4344 14.3828C22.4402 15.0293 22.4132 15.6757 22.3535 16.3195C22.3306 16.7362 22.2943 17.1523 22.2603 17.6193L25.221 16.7543ZM27.9631 16.0478C27.941 15.7703 27.935 15.6096 27.9143 15.4511C27.275 10.5639 25.176 6.49948 21.1257 3.57206C20.273 2.96057 19.3635 2.4323 18.4097 1.99447C17.151 1.41255 17.0167 1.50334 16.2947 2.70096C16.2731 2.73681 16.292 2.7973 16.292 2.84436C16.3382 2.8754 16.3866 2.90258 16.4372 2.92554C16.5893 2.98035 16.7454 3.02392 16.8967 3.08077C18.6928 3.75506 20.2738 4.73541 21.5585 6.19298C23.65 8.57399 25.2179 11.3678 26.1608 14.3934C26.3634 15.0285 26.5659 15.6637 26.7806 16.3368L27.9631 16.0478ZM13.6926 20.5584C13.3204 19.3911 12.3573 18.8613 11.1015 19.0487C9.31407 19.3154 8.12781 20.6445 8.12673 22.4419L13.6926 20.5584ZM9.04984 13.4061C10.2197 14.3275 11.3628 14.2541 12.1161 13.2526C12.5805 12.6479 12.8284 11.9047 12.8201 11.1422C12.8114 10.2254 12.4659 9.87319 11.4511 9.7636L9.04984 13.4061ZM20.7808 18.1104C20.8868 17.3555 20.9872 16.6891 21.0723 16.0207C21.159 15.339 21.3927 14.6549 21.1096 13.9653C19.2734 14.3229 17.9903 16.9734 18.7811 18.7735L20.7808 18.1104Z" fill="#E31836"/>
</svg>
